Coordinates
version=1
nRows=16
nColumns=40
inDegrees=yes

Units are S.I. units (second, meters, Newtons, ...)
Angles are in degrees.

endheader
time	pelvis_tilt	pelvis_list	pelvis_rotation	pelvis_tx	pelvis_ty	pelvis_tz	hip_flexion_r	hip_adduction_r	hip_rotation_r	knee_angle_r	knee_angle_r_beta	ankle_angle_r	subtalar_angle_r	mtp_angle_r	hip_flexion_l	hip_adduction_l	hip_rotation_l	knee_angle_l	knee_angle_l_beta	ankle_angle_l	subtalar_angle_l	mtp_angle_l	lumbar_extension	lumbar_bending	lumbar_rotation	arm_flex_r	arm_add_r	arm_rot_r	elbow_flex_r	pro_sup_r	wrist_flex_r	wrist_dev_r	arm_flex_l	arm_add_l	arm_rot_l	elbow_flex_l	pro_sup_l	wrist_flex_l	wrist_dev_l
     28.42214286	     -2.70620355	     -1.81091433	     -1.79528091	      0.98882176	      0.91369790	      0.39270937	     22.44531719	     -6.92032072	     -6.28578431	     56.75588668	     56.75588668	     16.19288555	    -19.39395984	     18.19543739	     17.89987454	      2.89432989	     -0.99683158	     32.15308582	     32.15308582	     19.83887956	    -17.50352506	      7.81622462	    -10.54012531	      5.56070560	      2.41042110	     17.96478685	    -11.19105084	     -8.01361977	     28.88684769	     46.82378475	      0.00000000	      0.00000000	     13.48379504	    -13.90931792	      9.42321192	     52.39902892	     46.13270079	      0.00000000	      0.00000000
     28.44678571	     -2.86456601	     -2.13125593	     -2.44335177	      0.98687362	      0.91429477	      0.39349121	     23.45664631	     -6.39647875	     -5.47681350	     55.32901973	     55.32901973	     16.27142351	    -19.29843495	     17.80456788	     17.63526104	      2.39524413	     -1.40562964	     31.84090622	     31.84090622	     20.04140228	    -17.45642497	      8.04432256	    -10.62086310	      5.98528804	      2.98705679	     13.47275384	    -11.82297831	     -8.04529254	     26.93795778	     46.86689300	      0.00000000	      0.00000000	     14.93254277	    -13.94721675	      8.16496818	     54.62379986	     46.28341815	      0.00000000	      0.00000000
     28.47142857	     -2.94208897	     -2.43346835	     -3.14539217	      0.98456037	      0.91538400	      0.39476485	     24.26607906	     -5.89901398	     -4.57611532	     53.38786123	     53.38786123	     16.08310505	    -19.22515990	     16.86222806	     17.25092400	      1.87629600	     -1.89260112	     31.45213838	     31.45213838	     20.19484886	    -17.40773521	      8.26650450	    -10.98616927	      6.33861047	      3.17333488	      9.30695149	    -12.25681207	     -8.09917298	     25.67711509	     46.88140703	      0.00000000	      0.00000000	     16.13169241	    -14.28427825	      6.36262711	     57.32630228	     46.48196697	      0.00000000	      0.00000000
     28.49607143	     -3.17964803	     -2.74037131	     -3.81669903	      0.98210135	      0.91668663	      0.39639530	     24.95206167	     -5.53865265	     -3.97241184	     50.72847333	     50.72847333	     14.93895664	    -19.11244287	     13.12522246	     16.91130521	      1.32305548	     -2.37570356	     30.80439187	     30.80439187	     20.15381201	    -17.29818247	      8.28324589	    -11.20198627	      6.71371871	      2.11788159	      5.42162879	    -12.31033779	     -7.94532890	     26.21782396	     46.78420417	      0.00000000	      0.00000000	     15.92340866	    -15.07584101	      2.38091725	     61.66111733	     46.86993839	      0.00000000	      0.00000000
     28.52071429	     -3.44025610	     -3.07844383	     -4.52425356	      0.97942068	      0.91829942	      0.39855765	     25.59932400	     -5.03640239	     -3.21981288	     47.87041319	     47.87041319	     14.60091621	    -18.87299682	     12.47818607	     16.50647115	      0.69848638	     -2.88974100	     29.98689423	     29.98689423	     20.02677387	    -17.17493141	      8.35500636	    -11.36527167	      7.09687739	      2.14371440	      1.77552748	    -12.60855517	     -7.80408808	     24.93481586	     46.79053014	      0.00000000	      0.00000000	     17.35096605	    -15.77021721	      1.32610425	     63.53044771	     46.99028525	      0.00000000	      0.00000000
     28.54535714	     -3.77278084	     -3.33727263	     -5.21744589	      0.97664994	      0.91978233	      0.40097711	     26.02350193	     -4.75340792	     -2.78785097	     44.41313015	     44.41313015	     12.75030120	    -18.55218492	      7.48184045	     16.12436747	      0.11962399	     -3.49638402	     29.03897087	     29.03897087	     19.53711974	    -17.04428366	      7.55794844	    -11.54247692	      7.36931406	      1.50402769	     -1.93698205	    -12.88635501	     -7.32851545	     25.78813998	     46.65839886	      0.00000000	      0.00000000	     17.61762569	    -16.73977687	     -1.16243812	     67.53013996	     47.25214276	      0.00000000	      0.00000000
     28.57000000	     -4.18539852	     -3.59942917	     -5.88420081	      0.97378284	      0.92124122	      0.40379498	     26.51910207	     -4.33425949	     -2.20877398	     41.10754638	     41.10754638	     12.36606864	    -17.61138805	      7.39231161	     15.83150631	     -0.47204852	     -4.01977190	     28.11910384	     28.11910384	     19.37784041	    -16.81282400	      7.68958639	    -11.51141220	      7.68458396	      1.32311863	     -4.95759035	    -13.03902323	     -7.27123469	     24.80323919	     46.66637779	      0.00000000	      0.00000000	     19.02904283	    -17.67105518	     -1.94957986	     68.95068966	     47.34121159	      0.00000000	      0.00000000
     28.59464286	     -4.43194762	     -3.73261490	     -6.58787803	      0.97104281	      0.92257984	      0.40694211	     26.49543990	     -4.15104488	     -1.92904023	     37.25448236	     37.25448236	     10.15482807	    -16.62426147	      1.97065050	     15.34949845	     -0.96100898	     -4.73910093	     27.18572544	     27.18572544	     18.79919018	    -16.66554281	      6.57600869	    -11.83876846	      7.73717213	      1.15731949	     -8.41631892	    -13.33346404	     -6.73431248	     26.29564340	     46.50629476	      0.00000000	      0.00000000	     19.58696382	    -18.41732844	     -4.13514324	     73.20912952	     47.59142017	      0.00000000	      0.00000000
     28.61928571	     -4.74436410	     -3.83972731	     -7.21704990	      0.96836659	      0.92364579	      0.41033567	     26.59408080	     -3.96268633	     -1.71365940	     33.90322810	     33.90322810	      9.71598945	    -14.23070875	      1.68709828	     15.00650864	     -1.41587529	     -5.34216235	     26.41302961	     26.41302961	     18.68303600	    -16.37531249	      6.53579335	    -11.93032288	      7.83431152	      1.24920245	    -10.99814840	    -13.35955355	     -6.66914351	     25.79601609	     46.49576543	      0.00000000	      0.00000000	     21.04293848	    -19.13775466	     -4.92416497	     75.20516076	     47.69406145	      0.00000000	      0.00000000
     28.64392857	     -5.02246738	     -3.83354114	     -7.79290996	      0.96588922	      0.92430130	      0.41390783	     26.58484642	     -3.97114501	     -1.83621158	     30.75305486	     30.75305486	      9.16758677	    -11.01904180	      1.04753903	     14.68714291	     -1.76265963	     -5.97060862	     25.75519286	     25.75519286	     18.53587809	    -16.07930886	      6.17711332	    -12.03817216	      7.75893996	      1.23684365	    -13.42405016	    -13.30793834	     -6.75423723	     26.26732907	     46.45321248	      0.00000000	      0.00000000	     22.14894789	    -19.79057980	     -5.94540135	     77.99358213	     47.82591500	      0.00000000	      0.00000000
     28.66857143	     -5.32861582	     -3.88552370	     -8.26845890	      0.96356541	      0.92471171	      0.41781733	     26.40626617	     -3.77444596	     -1.82383775	     27.66687796	     27.66687796	      8.53300646	     -8.04139033	      1.13859305	     14.47251541	     -2.17105073	     -6.43202981	     25.27049852	     25.27049852	     18.47851787	    -15.90765610	      5.97586256	    -12.03178448	      7.80358811	      1.16813111	    -15.25660882	    -13.19751225	     -6.81868398	     26.44605813	     46.42953327	      0.00000000	      0.00000000	     23.35797207	    -20.45127793	     -6.71538125	     79.94278614	     47.92347359	      0.00000000	      0.00000000
     28.69321429	     -5.55141412	     -3.69841226	     -8.67953021	      0.96149826	      0.92460114	      0.42184992	     26.31693022	     -3.95620312	     -2.21237525	     25.29044327	     25.29044327	      8.04307527	     -4.08921301	      0.88842851	     14.25736850	     -2.33119445	     -6.94843133	     24.91640289	     24.91640289	     18.33322957	    -15.67340765	      5.34471400	    -12.10469248	      7.54571723	      1.03511940	    -17.06790339	    -12.96348472	     -6.99338381	     28.00680659	     46.34908026	      0.00000000	      0.00000000	     24.23610228	    -20.91755464	     -7.84935280	     83.12652712	     48.06952937	      0.00000000	      0.00000000
     28.71785714	     -5.82206312	     -3.70991514	     -8.98618786	      0.95959867	      0.92438695	      0.42629679	     25.99486745	     -3.68541968	     -2.12908201	     22.88701511	     22.88701511	      7.24707680	     -1.53061050	      1.35397310	     14.17128442	     -2.70272419	     -7.19920878	     24.77547692	     24.77547692	     18.39871797	    -15.65018529	      5.12017132	    -12.07397539	      7.53193067	      1.00966186	    -18.06360753	    -12.72936872	     -6.97892072	     28.37366596	     46.31961634	      0.00000000	      0.00000000	     25.43994993	    -21.28676867	     -8.38367831	     84.72508181	     48.14438638	      0.00000000	      0.00000000
     28.74250000	     -5.98445595	     -3.53211716	     -9.27122905	      0.95802371	      0.92378670	      0.43087755	     25.81618451	     -3.73380118	     -2.45754943	     21.35111476	     21.35111476	      6.70807149	      1.64691257	      1.54810099	     13.99403765	     -2.87075491	     -7.51662229	     24.66501779	     24.66501779	     18.30433316	    -15.64790031	      4.30772460	    -12.17325624	      7.33469728	      0.77816020	    -19.43043103	    -12.69230488	     -6.62056236	     31.28615349	     46.14127497	      0.00000000	      0.00000000	     26.02556312	    -21.59775738	     -9.65760401	     87.80904732	     48.30531915	      0.00000000	      0.00000000
     28.76714286	     -6.29735290	     -3.29781490	     -9.50360494	      0.95643387	      0.92280381	      0.43592931	     25.90316809	     -3.56405462	     -1.90518077	     20.35494984	     20.35494984	      6.12526167	      2.89473720	      1.82639002	     14.09516470	     -3.01500292	     -7.68603887	     24.76110611	     24.76110611	     18.45069856	    -15.75347144	      4.21243091	    -11.93000823	      7.07717504	      0.72609938	    -19.39562128	    -12.38023503	     -6.53188630	     31.41628010	     46.12889997	      0.00000000	      0.00000000	     27.40078876	    -21.98432441	     -9.91675099	     88.58813792	     48.34603325	      0.00000000	      0.00000000
     28.79178571	     -6.36654190	     -3.33379369	     -9.56085039	      0.95536743	      0.92237716	      0.44097126	     25.29988989	     -3.36994808	     -2.49870777	     19.09303633	     19.09303633	      5.57055983	      5.32542199	      1.90780696	     13.87098029	     -3.38836783	     -7.67582773	     24.85862020	     24.85862020	     18.70489292	    -15.69237958	      4.08501224	    -12.12621282	      7.13228742	      1.08087334	    -19.47170302	    -12.08375473	     -6.34584033	     31.89617277	     46.09282482	      0.00000000	      0.00000000	     28.47495828	    -21.43617165	     -9.98447678	     90.58484238	     48.39806265	      0.00000000	      0.00000000
